<?xml version="1.0" encoding="UTF-8"?>
<svg id="Layer_2" data-name="Layer 2" xmlns="http://www.w3.org/2000/svg" xmlns:xlink="http://www.w3.org/1999/xlink" viewBox="0 0 5000.84 3598.27">
  <defs>
    <style>
      .cls-1 {
        fill: url(#Degradado_sin_nombre_6-4);
      }

      .cls-2 {
        fill: url(#Degradado_sin_nombre_6-6);
      }

      .cls-3 {
        fill: url(#Degradado_sin_nombre_6-5);
      }

      .cls-4 {
        fill: url(#Degradado_sin_nombre_6-3);
      }

      .cls-5 {
        fill: url(#Degradado_sin_nombre_6-2);
      }

      .cls-6 {
        fill: url(#Degradado_sin_nombre_6);
      }
    </style>
    <linearGradient id="Degradado_sin_nombre_6" data-name="Degradado sin nombre 6" x1="1507.33" y1="1785.37" x2="2266.85" y2="469.83" gradientUnits="userSpaceOnUse">
      <stop offset="0" stop-color="#841d1c"/>
      <stop offset="1" stop-color="#e42320"/>
    </linearGradient>
    <linearGradient id="Degradado_sin_nombre_6-2" data-name="Degradado sin nombre 6" x1="2929.15" y1="3491.07" x2="3948.06" y2="1726.26" xlink:href="#Degradado_sin_nombre_6"/>
    <linearGradient id="Degradado_sin_nombre_6-3" data-name="Degradado sin nombre 6" x1="3184.19" y1="2191.98" x2="4152.82" y2="514.25" xlink:href="#Degradado_sin_nombre_6"/>
    <linearGradient id="Degradado_sin_nombre_6-4" data-name="Degradado sin nombre 6" x1="1353.94" y1="3414.11" x2="2251.78" y2="1859.01" xlink:href="#Degradado_sin_nombre_6"/>
    <linearGradient id="Degradado_sin_nombre_6-5" data-name="Degradado sin nombre 6" x1="52.28" y1="3399.7" x2="711.08" y2="2258.63" xlink:href="#Degradado_sin_nombre_6"/>
    <linearGradient id="Degradado_sin_nombre_6-6" data-name="Degradado sin nombre 6" x1="331.93" y1="2345.23" x2="565.16" y2="1941.25" xlink:href="#Degradado_sin_nombre_6"/>
  </defs>
  <g id="Capa_1" data-name="Capa 1">
    <rect x="3462.42" y="1513.77" width="309.6" height="0"/>
    <path d="M993.5,2987.18v-650.91h-83.92v-272.29h0v272.3h83.92v650.91c0,123.79,0,229.29,138.42,297.91-138.42-68.62-138.42-174.12-138.42-297.91Z"/>
    <polygon points="1948.42 3369.52 2075.07 3368.44 1948.42 3369.52 1948.42 3369.52"/>
    <path d="M1771.23,3369.52h0c-339.9,0-531.24-30.99-638.96-84.26,107.72,53.27,299.07,84.26,638.96,84.26Z"/>
    <path d="M4430.38,1593.97v-919.48h-658.37s658.37,0,658.37,0v919.48c0,39.87,0,71.84,24.59,91.63-24.59-19.79-24.59-51.77-24.59-91.63Z"/>
    <path class="cls-6" d="M1946.19,674.5h-1023.92l83.93,126.82v145.47c-1.87,261.12-1.87,1033.25,1615.15,1033.25v-645.31c-969.84,0-969.84-126.82-969.84-387.94h324.52v72.74l-126.82,83.93h772.14v-428.97h-675.16Z"/>
    <path class="cls-5" d="M3934.49,3245.84c19.58-45.59,39.14-74.77,61.21-91.2,2.13-3.08,5.7-8.37,11.37-17.19l4.08-6.35,5.72-4.93c20.26-17.46,23.8-26.09,23.83-26.17l2.57-6.06c23.26-46.52,46.08-72.53,73.2-83.09,3.63-3.93,11.95-13.91,26.48-36.24,19.57-29.48,57.78-71.17,120.41-131.4l.87-.82c56-50.94,102.24-85.54,141.57-105.95,16.3-8.64,30.69-17.56,42.57-26.43l2.91-2.17v-378.76l81.72-265.12h-1849.81l70.87,272.3h83.93v182.78h-83.93v272.3h83.93v192.1c0,67.14,0,111.91-117.51,113.77l-1.86,272.3c777.74,0,777.74-162.26,777.74-382.34v-195.83h309.6v86.86c10.43-14.98,21.68-30.71,34.01-47.47,9.35-12.39,28.41-37.66,59.72-37.66,44.17,0,81.87,25.29,112.09,75.19,22.89,22.2,43.43,46.86,43.43,76.63v6.58l-1.04,5.13c-2.55,12.55-9.24,33.92-39.35,96.93-4.32,13.32-13.87,26.99-36.75,52.7-20.53,56.18-27.81,72.1-43.05,82.36-19.26,15.9-26.63,24.55-29,27.67l-.17.67-1.64,3.52c-18.72,42.31-31.84,69.18-58.67,77.64-4.73,17.67-16.92,37.53-39.59,64.1v7.33h62.64c2.08-7.86,4.48-16.52,7.32-26.29l3.63-12.49,9.08-9.31c19.69-20.22,34.73-44.63,44.69-72.53l1.19-3.05ZM3805.94,2519.05h-309.6v-182.78h309.6v182.78Z"/>
    <rect x="2606.78" y="2063.97" width="0" height="1299.95"/>
    <rect x="2817.1" y="674.5" width="645.31" height="0"/>
    <polygon points="4547.88 1707.74 4547.88 1707.74 4548.34 1775.11 4547.88 1707.74"/>
    <polygon points="1651.87 2522.78 1801.51 2808.88 1651.87 2522.78 1651.87 2522.78"/>
    <polygon points="1948.41 2630.95 1806.91 2360.41 1948.41 2630.95 1948.41 2630.95"/>
    <polygon points="2733.18 1513.77 2733.18 1241.47 2817.1 1241.47 2817.1 1241.47 2733.18 1241.47 2733.18 1513.77 2817.1 1513.77 2817.1 1513.77 2733.18 1513.77"/>
    <path d="M0,3369.52l1.86-272.3h0l-1.86,272.3c677.34,0,761.93-124.87,775.01-304.09-13.08,179.23-97.67,304.09-775.01,304.09Z"/>
    <rect x="3462.42" y="1241.47" width="309.6" height="0"/>
    <path d="M461.75,164.8c64.21,0,117.37,11.97,134.84,62.92h191.57C776.39,52.88,634.41.39,461.75,0,281.95.77,133.55,57.12,134.26,253.18v37.83c-.71,196.44,147.69,252.8,327.49,253.18,172.66,0,314.64-52.49,326.41-227.71h-191.57c-17.12,50.94-70.63,63.29-134.84,63.29-76.35-1.16-141.27-16.6-140.2-101.12v-12.73c-1.07-85.29,63.85-99.96,140.2-101.12Z"/>
    <path d="M1488.88,291v-37.83C1488.88,57.12,1342.26,0,1161.76,0c-180.51.39-328.2,56.73-327.49,253.18v37.83c-.71,196.06,146.98,252.8,327.49,253.18,180.15-.38,327.84-57.12,327.12-253.18ZM1021.2,278.27v-12.74c-1.07-84.52,63.86-99.96,140.56-101.11,76.34,1.15,141.26,16.59,140.2,101.11v12.74c1.06,84.9-63.86,100.34-140.2,101.5-76.7-1.16-141.63-16.6-140.56-101.5Z"/>
    <polygon points="1731.2 254.73 1918.48 531.45 2011.95 531.45 2199.24 254.73 2199.24 531.45 2386.17 531.45 2386.17 12.74 2152.5 12.74 1965.22 272.09 1778.29 12.74 1544.27 12.74 1544.27 531.45 1731.2 531.45 1731.2 254.73"/>
    <path d="M3138.29,209.57c1.43-107.29-82.4-197.22-181.21-196.07h-461.98v518.71h186.93v-126.59h275.05c98.82,1.55,182.65-89.15,181.21-196.05ZM2938.88,240.83c-7.84,8.49-17.48,12.74-28.54,12.74h-228.31v-88.38h228.31c11.06,0,20.7,4.25,28.54,13.13,8.21,8.48,12.13,18.91,12.13,31.26s-3.92,22.39-12.13,31.26Z"/>
    <path d="M3375.97,405.24h166.95l90.26,126.59h199.05l-104.51-145.5c31.39-15.83,56.72-39.76,75.63-71.01,19.26-31.65,28.89-67.16,28.89-106.14,1.44-107.29-82.39-197.22-181.21-196.06h-461.98v518.71h186.93v-126.59ZM3375.97,164.8h227.95c22.83,0,41.03,19.69,41.03,44.39,0,11.96-3.92,22.38-12.13,31.26-7.84,8.49-17.48,12.73-28.9,12.73h-227.95v-88.38Z"/>
    <polygon points="4451.26 399.07 4077.05 399.07 4077.05 332.69 4451.26 332.69 4451.26 212.66 4077.05 212.66 4077.05 146.27 4451.26 146.27 4451.26 13.51 3890.12 13.51 3890.12 532.22 4451.26 532.22 4451.26 399.07"/>
    <path class="cls-4" d="M4430.38,1593.98v-919.48h-658.37v566.98h0s-309.6,0-309.6,0h0s0,0,0,0v-566.98h-645.31v566.98h0s-83.92,0-83.92,0v272.29h83.92v466.27h645.31v-466.27h0s309.6,0,309.6,0h0s0,0,0,0v83.93c0,220.08,0,382.34,777.73,382.34l-1.4-204.93-.46-67.37c-47.73-.76-76.07-8.59-92.9-22.13-24.59-19.79-24.59-51.76-24.59-91.63Z"/>
    <polygon points="3462.41 1980.04 2817.1 1980.04 2817.1 1513.77 2817.1 1513.77 2817.1 1980.04 3462.42 1980.04 3462.42 1513.77 3462.41 1513.77 3462.41 1980.04"/>
    <rect x="3462.41" y="674.5" width="0" height="566.98"/>
    <path d="M3772.01,1597.7v-83.93h0v83.93c0,220.08,0,382.34,777.74,382.34l-1.41-204.93,1.4,204.93c-777.73,0-777.73-162.26-777.73-382.34Z"/>
    <rect x="3772.01" y="674.5" width="0" height="566.98"/>
    <path d="M4547.88,1707.74c-47.73-.76-76.07-8.59-92.9-22.13,16.83,13.54,45.17,21.38,92.9,22.13h0Z"/>
    <polygon points="2606.78 3363.93 2606.78 3363.92 2075.07 3368.44 2606.78 3363.93"/>
    <polygon points="1801.51 2808.88 1948.41 3089.76 1948.41 3369.52 1948.42 3369.52 1948.42 3089.76 1801.51 2808.88"/>
    <polygon points="1948.42 2063.97 2606.78 2063.97 2606.78 2063.97 1948.41 2063.97 1948.41 2630.95 1948.42 2630.95 1948.42 2063.97"/>
    <path d="M1651.87,2983.45c0,67.14,0,111.9,117.5,113.76l1.87,272.3h0l-1.87-272.3c-117.5-1.86-117.5-46.62-117.5-113.76v-460.67h0s0,460.67,0,460.67Z"/>
    <polygon points="1806.91 2360.41 1651.87 2063.97 909.58 2063.97 909.58 2063.97 1651.87 2063.97 1806.91 2360.41"/>
    <path class="cls-1" d="M1948.42,2063.97v566.98h0s0,0,0,0l-141.5-270.54-155.05-296.44h-742.29v272.29h83.92v650.91c0,123.8,0,229.3,138.42,297.91.11.06.23.11.35.17,107.72,53.27,299.07,84.26,638.96,84.26l-1.87-272.3c-117.5-1.86-117.5-46.62-117.5-113.76v-460.67h0s0,0,0,0l149.64,286.1,146.91,280.88v279.76l126.66-1.08,531.71-4.52v-1299.95h-658.37Z"/>
    <path d="M1132.27,3285.26c-.11-.06-.23-.11-.35-.17.11.06.23.11.35.17Z"/>
    <path class="cls-3" d="M777.73,2297.11H119.37v686.34c0,67.14,0,111.9-117.51,113.76L0,3369.52c677.34,0,761.93-124.87,775.01-304.09,1.83-25.08,2.26-51.23,2.72-78.25v-690.07Z"/>
    <path d="M119.36,2983.45c0,67.14,0,111.9-117.51,113.76h0c117.51-1.86,117.51-46.62,117.51-113.76v-686.34h658.36v690.07c-.46,27.02-.89,53.16-2.72,78.25,1.83-25.08,2.26-51.23,2.72-78.25v-690.07H119.36v686.34Z"/>
    <polygon points="119.37 2063.98 777.73 2063.98 777.73 2063.97 119.36 2063.97 119.36 2222.5 119.37 2222.5 119.37 2063.98"/>
    <rect class="cls-2" x="119.37" y="2063.98" width="658.36" height="158.53"/>
    <polygon points="777.73 827.5 777.73 677.44 143.45 677.44 143.45 1263.74 777.73 1263.74 777.73 1113.24 354.75 1113.24 354.75 1038.21 777.73 1038.21 777.73 902.54 354.75 902.54 354.75 827.5 777.73 827.5"/>
    <polygon points="136.47 1913.84 319.49 1913.84 319.49 1591.12 571.66 1913.84 777.73 1913.84 777.73 1385.53 594.37 1385.53 594.37 1665.41 388.3 1385.53 136.47 1385.53 136.47 1913.84"/>
    <path d="M4038.58,3470.46c-1.59,4.78-2.68,9.05-3.31,12.86h0c.63-3.81,1.72-8.08,3.31-12.86Z"/>
    <path d="M3828.8,3248.57c4.03,0,13.32-16.46,27.88-49.38,3.14-11.87,19.15-29.56,48.04-53.08,2.91-1.57,12.21-23.96,27.88-67.19,21.95-24.18,32.92-38.51,32.92-43,22.39-46.58,34.93-76.48,37.62-89.69v-1.34c0-8.95-10.87-23.62-32.59-44.01-21.06-37.17-44.68-55.76-70.88-55.76-3.59,0-9.52,5.49-17.8,16.46-73.02,99.21-112.21,167.52-117.58,204.91,1.79,5.37,2.69,8.74,2.69,10.08,0,1.57-2.13,7.05-6.38,16.46-46.81,68.98-71.21,109.85-73.23,122.61l5.04,6.39v3.69c0,7.17-7.62,23.18-22.84,48.04-38.07,48.6-57.11,100.9-57.11,156.88-12.54,45.91-18.81,72-18.81,78.27v7.39c0,7.61,3.81,15.67,11.42,24.19,24.64,0,48.26-16.91,70.88-50.73,25.53-61.14,45.35-103.69,59.46-127.65,40.31-41.66,60.46-68.97,60.46-81.97,4.7-14.33,15.68-24.86,32.92-31.57Z"/>
    <path d="M4034.72,3487.76h0c.89,5.38,2.69,10.31,5.38,14.78,4.76,0,10.4-1.6,16.87-4.7-6.47,3.1-12.11,4.7-16.87,4.7-2.69-4.48-4.49-9.41-5.38-14.78Z"/>
    <path d="M4202.35,3369.52h0c-5.72,5.69-11.09,11-16.13,15.96,5.04-4.96,10.41-10.28,16.13-15.96Z"/>
    <path d="M4034.72,3487.76c.1-1.39.3-2.88.55-4.43h0c-.25,1.55-.46,3.04-.55,4.43h0Z"/>
    <polygon points="4202.35 3369.52 4202.35 3369.52 4189.15 3369.52 4189.15 3369.52 4202.35 3369.52"/>
    <path d="M4984.72,2817.58c-6.05,0-11.42.45-16.13,1.34-73.9,16.8-124.97,33.82-153.18,51.06-73.9,26.87-152.29,61.36-235.15,103.46-41.21,20.83-107.05,58.9-197.53,114.21-28.44,15.23-49.04,30.91-61.81,47.03,0,1.8,1.79,5.37,5.38,10.75,25.53,21.94,38.51,37.17,38.97,45.69-9.64,19.26-32.03,42.1-67.19,68.53-45.46,46.4-81.75,83-108.94,109.86h13.21c-5.71,5.69-11.08,11-16.13,15.97,5.04-4.96,10.41-10.28,16.13-15.96h-13.21c-37.11,36.66-57.26,55.16-60.36,55.41-42.11,43.89-72.12,65.84-90.03,65.84-1.41-2.36-2.57-4.84-3.49-7.45-.25,1.55-.46,3.04-.55,4.43.89,5.37,2.69,10.31,5.38,14.78,4.76,0,10.4-1.6,16.87-4.7-6.47,3.1-12.11,4.7-16.87,4.7-2.69-4.48-4.49-9.41-5.38-14.78h0c.1-1.39.3-2.89.55-4.44l11.55-47.64c9.85-52.63,60.01-134.15,150.49-244.55,7.84-15.23,30.68-41.2,68.53-77.94,19.7-25.97,37.17-47.48,52.4-64.5,64.5-60.69,96.75-92.49,96.75-95.4,37.17-36.5,63.6-56.21,79.28-59.12h4.03c33.36,12.54,53.07,18.81,59.12,18.81,17.02-2.24,25.53-8.06,25.53-17.47,17.01-21.72,25.53-36.5,25.53-44.35-.67-11.2-7.39-23.74-20.15-37.62-41.88-41.2-78.16-61.81-108.84-61.81-14.11,10.53-30.69,20.83-49.72,30.91-34.94,18.14-78.38,50.84-130.34,98.09-58.45,56.21-96.07,96.98-112.87,122.28-21.73,33.37-37.4,51.74-47.03,55.09-15.01,3.14-31.58,22.84-49.72,59.12-4.93,14.11-17.92,30.23-38.97,48.37-12.09,18.81-18.81,28.22-20.16,28.22-15.23,8.74-31.35,32.92-48.37,72.56-12.55,35.16-31.35,65.62-56.43,91.37-11.65,40.09-17.47,66.51-17.47,79.27v1.35c0,45.91,31.8,84.87,95.4,116.9,34.94,24.19,60.46,36.28,76.59,36.28h1.35c32.02,0,67.85-16.12,107.49-48.38l80.62-71.21c5.15,0,8.28,4.93,9.41,14.78v8.06c0,3.81-.9,21.73-2.69,53.75v17.47c2.91,21.5,12.77,32.25,29.56,32.25,11.2,0,21.05-4.93,29.56-14.78l25.53-57.77c30.46-38.51,45.69-62.26,45.69-71.22,0-18.58,7.17-32.92,21.5-43,9.85-28.22,17.01-46.14,21.5-53.75,18.81-16.35,28.22-27.1,28.22-32.25,9.85-33.81,29.11-65.61,57.78-95.4l56.44-91.37c24.4-43.89,60.68-75.25,108.83-94.06,39.41-34.94,69.42-59.57,90.03-73.91,19.03-2.68,45.01-14.33,77.93-34.94,6.05-12.54,15-18.81,26.87-18.81,19.49-15,40.53-27.55,63.16-37.62,27.76-15.46,41.65-29.34,41.65-41.66v-6.72c0-8.06-5.38-12.54-16.12-13.43Z"/>
  </g>
</svg>