<svg xmlns="http://www.w3.org/2000/svg" viewBox="0 0 24 24" fill="none">
  <path d="M12 2a9 9 0 0 0-7.9 13.5L2 22l6.5-2.1A9 9 0 1 0 12 2z" fill="#25d366"/>
  <path d="M16 12.5c-.3-.2-.6-.4-.9-.5-.3-.1-.6.2-.8.3-.3.1-.4.2-.7.1-.3-.1-.8-.3-1.2-.6-.4-.3-.8-.7-1.1-1.1-.3-.4-.5-.8-.6-1.2-.1-.3 0-.5.1-.7.1-.2.3-.5.3-.8s-.3-.6-.5-.9c-.1-.2-.3-.4-.5-.4-.2 0-.5 0-.7 0-.2 0-.4.1-.5.2-.6.6-1 1.4-.9 2.2.1.8.5 1.6 1.1 2.3 1.6 2 3.8 3.5 6.2 4.1.4.1.8.2 1.2.3h.5c.7 0 1.4-.3 1.9-.8.3-.3.4-.6.4-1 0-.2 0-.5-.2-.7-.2-.2-.7-.4-1-.6z" fill="#fff"/>
</svg>
