<svg xmlns="http://www.w3.org/2000/svg" viewBox="0 0 24 24">
  <path fill="#25d366" d="M12 2A10 10 0 0 0 2 12a9.9 9.9 0 0 0 1.35 5L2 22l4.55-1.39A10 10 0 1 0 12 2z"/>
  <path fill="#fff" d="M17.05 14.47c-.26-.13-1.53-.75-1.76-.84-.23-.09-.4-.13-.58.13-.17.26-.67.84-.82 1-.15.16-.29.17-.54.06-.25-.12-1.05-.39-1.76-.98-.66-.55-1.1-1.23-1.23-1.43-.12-.2-.01-.32.09-.43.09-.09.2-.23.29-.34.09-.11.12-.2.2-.34.07-.14.04-.27 0-.37-.04-.1-.37-1.11-.52-1.51-.15-.36-.3-.31-.52-.32-.13 0-.28 0-.43 0-.15 0-.35.05-.53.24-.18.19-.67.64-.67 1.57s.69 1.85.78 1.98c.09.13 1.37 2.19 3.32 3.08.46.21.82.33 1.11.44.47.17.9.15 1.22.09.37-.07 1.15-.47 1.3-.93.15-.46.15-.85.11-.93-.05-.08-.21-.14-.44-.24z"/>
</svg>
